<?xml version="1.0" encoding="iso-8859-1"?>
<!-- Generator: Adobe Illustrator 15.0.2, SVG Export Plug-In . SVG Version: 6.00 Build 0)  -->
<!DOCTYPE svg PUBLIC "-//W3C//DTD SVG 1.1//EN" "http://www.w3.org/Graphics/SVG/1.1/DTD/svg11.dtd">
<svg version="1.1" id="Layer_1" xmlns="http://www.w3.org/2000/svg" xmlns:xlink="http://www.w3.org/1999/xlink" x="0px" y="0px"
	 width="580px" height="580px" viewBox="0 0 580 580" style="enable-background:new 0 0 580 580;" xml:space="preserve">
<path style="fill-rule:evenodd;clip-rule:evenodd;" d="M290,580C129.837,580,0,450.163,0,290S129.837,0,290,0s290,129.837,290,290
	S450.163,580,290,580z M290,40C151.929,40,40,151.929,40,290c0,136.25,112,250,246.746,249.958c1.082,0.013,2.166,0.042,3.254,0.042
	c-1.088,0-2.169-0.027-3.254-0.042C219.248,538.251,165,483.563,165,414.667c0-69.333,55.945-121.323,124.857-124.81
	C359.5,286.333,415,233.667,415,164.667S359.5,40,290,40z"/>
</svg>
